<svg width="35" height="24" viewBox="0 0 35 24" fill="none" xmlns="http://www.w3.org/2000/svg">
<path d="M0 11.8618V23.7236H2.76454H5.52908L5.62394 22.9705C5.67815 22.5563 5.75946 22.2173 5.80011 22.2173C5.85432 22.2173 6.0847 22.3303 6.30152 22.4809C7.98193 23.5353 9.67589 24.0123 11.7899 23.9998C14.4732 23.9872 16.533 23.2341 18.2947 21.5897C19.9345 20.0709 20.7883 18.414 21.1406 16.0542C21.642 12.753 20.2597 9.18819 17.7662 7.33047C16.6957 6.53968 15.0559 5.82421 13.6872 5.57317C11.5325 5.1715 8.9712 5.5104 7.22304 6.41416L6.5048 6.77818V3.38909V0H3.2524H0V11.8618ZM15.205 13.6442L14.8797 16.5061L14.0395 18.0124L13.2129 19.5186L11.0446 19.6567C9.85206 19.732 8.83569 19.7697 8.78148 19.7571C8.74082 19.732 8.22586 19.004 7.65669 18.1379L6.61321 16.5689L6.28797 14.1463C6.1118 12.8283 5.93563 11.5229 5.88142 11.2593L5.80011 10.7949H10.6652H15.5302L15.205 13.6442Z" fill="#CE482C" style="fill:#CE482C;fill:color(display-p3 0.8091 0.2842 0.1740);fill-opacity:1;"/>
<path d="M24.5285 10.6317C24.5285 10.7572 24.7047 12.0752 24.9079 13.5564L25.2874 16.2551L26.358 17.8743L27.4286 19.481L28.323 19.4057C28.8108 19.368 29.8137 19.2927 30.559 19.255L31.9142 19.1672L32.7544 17.6484L33.5946 16.1296L33.8792 13.6191C34.0282 12.2384 34.1773 10.9581 34.2179 10.7572L34.2857 10.4183H29.4071C24.8537 10.4183 24.5285 10.4309 24.5285 10.6317Z" fill="#CE482C" style="fill:#CE482C;fill:color(display-p3 0.8091 0.2842 0.1740);fill-opacity:1;"/>
</svg>
