<svg width="24" height="24" viewBox="0 0 24 24" fill="none" xmlns="http://www.w3.org/2000/svg">
<path fill-rule="evenodd" clip-rule="evenodd" d="M3.36937 10.7633C8.73698 8.23103 12.3103 6.54844 14.1046 5.73213C19.2115 3.41648 20.285 3.01666 20.9751 3C21.1285 3 21.4659 3.03332 21.6959 3.23323C21.8799 3.39982 21.9259 3.6164 21.9566 3.78299C21.9873 3.94958 22.018 4.29943 21.9873 4.56598C21.7112 7.73125 20.515 15.4112 19.9016 18.943C19.6409 20.4423 19.1348 20.9421 18.644 20.9921C17.5705 21.092 16.7577 20.2258 15.7302 19.4927C14.1046 18.3433 13.1998 17.6269 11.6201 16.4941C9.79516 15.1946 10.976 14.4783 12.0189 13.3121C12.2949 13.0123 17.0031 8.34765 17.0951 7.93117C17.1104 7.88119 17.1104 7.68127 17.0031 7.58132C16.8957 7.48136 16.7424 7.51468 16.6197 7.548C16.451 7.58132 13.8745 9.44717 8.85967 13.1289C8.12354 13.6786 7.46409 13.9452 6.86598 13.9285C6.20654 13.9119 4.94898 13.5287 3.99815 13.1955C2.84795 12.7957 1.92779 12.5791 2.00447 11.8794C2.05048 11.5129 2.51056 11.1464 3.36937 10.7633Z" fill="white" style="fill:white;fill-opacity:1;"/>
</svg>
